Normalized EMG Linear Envelopes
nRows=81
nColumns=4

endheader
time	 med_gas_r	  soleus_r	 tib_ant_r	
4.36593	  0.022150	  0.019314	  0.004931	
4.4375	  0.022665	  0.017674	  0.004658	
4.50907	  0.022884	  0.016823	  0.004475	
4.58065	  0.023084	  0.016814	  0.004416	
4.65222	  0.023560	  0.017117	  0.004473	
4.72379	  0.024179	  0.017250	  0.004611	
4.79536	  0.024832	  0.017039	  0.004765	
4.86694	  0.025539	  0.016570	  0.004851	
4.93851	  0.026037	  0.016129	  0.004811	
5.01008	  0.025925	  0.015896	  0.004663	
5.08165	  0.025144	  0.015709	  0.004466	
5.15323	  0.024099	  0.015362	  0.004207	
5.2248	  0.023399	  0.014888	  0.003870	
5.29637	  0.023393	  0.014388	  0.003721	
5.36794	  0.023912	  0.014108	  0.004502	
5.43952	  0.024495	  0.015057	  0.007147	
5.51109	  0.024813	  0.018963	  0.012290	
5.58266	  0.025083	  0.027510	  0.020606	
5.65423	  0.026474	  0.042379	  0.033171	
5.72581	  0.031103	  0.064830	  0.050553	
5.79738	  0.040959	  0.093436	  0.071413	
5.86895	  0.056490	  0.123262	  0.091524	
5.94052	  0.077041	  0.148077	  0.105391	
6.0121	  0.101369	  0.163197	  0.111034	
6.08367	  0.125786	  0.168815	  0.111988	
6.15524	  0.147829	  0.172226	  0.114115	
6.22681	  0.174192	  0.183409	  0.121809	
6.29839	  0.211863	  0.205925	  0.135383	
6.36996	  0.251945	  0.234967	  0.150235	
6.44153	  0.278498	  0.263276	  0.159894	
6.5131	  0.285022	  0.284552	  0.161250	
6.58468	  0.273160	  0.297719	  0.156775	
6.65625	  0.250939	  0.310445	  0.151240	
6.72782	  0.231674	  0.326893	  0.147451	
6.7994	  0.224299	  0.337464	  0.145245	
6.87097	  0.228826	  0.333752	  0.142805	
6.94254	  0.239790	  0.321826	  0.140133	
7.01411	  0.250824	  0.313237	  0.140258	
7.08569	  0.258536	  0.314324	  0.143673	
7.15726	  0.262313	  0.324964	  0.146072	
7.22883	  0.263304	  0.340520	  0.144486	
7.3004	  0.265327	  0.353296	  0.140024	
7.37198	  0.271668	  0.356516	  0.135119	
7.44355	  0.280065	  0.351314	  0.132724	
7.51512	  0.284128	  0.344772	  0.134800	
7.58669	  0.278487	  0.341386	  0.139141	
7.65827	  0.263084	  0.343568	  0.141442	
7.72984	  0.245309	  0.353886	  0.140355	
7.80141	  0.234781	  0.369918	  0.137986	
7.87298	  0.234529	  0.383883	  0.137125	
7.94456	  0.242326	  0.392044	  0.138800	
8.01613	  0.258757	  0.400519	  0.141419	
8.0877	  0.288070	  0.417545	  0.143356	
8.15927	  0.331060	  0.441325	  0.145558	
8.23085	  0.376623	  0.460378	  0.149892	
8.30242	  0.404876	  0.466212	  0.156367	
8.37399	  0.406046	  0.457973	  0.162183	
8.44556	  0.392200	  0.435828	  0.163591	
8.51714	  0.383825	  0.404954	  0.160439	
8.58871	  0.387422	  0.379865	  0.157334	
8.66028	  0.392762	  0.368855	  0.157965	
8.73185	  0.389566	  0.366959	  0.160166	
8.80343	  0.376710	  0.367831	  0.158846	
8.875	  0.357256	  0.366138	  0.151959	
8.94657	  0.335280	  0.354895	  0.142032	
9.01815	  0.315508	  0.334266	  0.133434	
9.08972	  0.301076	  0.316392	  0.129045	
9.16129	  0.294336	  0.312023	  0.128775	
9.23286	  0.297490	  0.318005	  0.131096	
9.30444	  0.312238	  0.325890	  0.136256	
9.37601	  0.340706	  0.336000	  0.146424	
9.44758	  0.380820	  0.354971	  0.161105	
9.51915	  0.423836	  0.384524	  0.174899	
9.59073	  0.460457	  0.419185	  0.182774	
9.6623	  0.482717	  0.450282	  0.185306	
9.73387	  0.481862	  0.465296	  0.184914	
9.80544	  0.450104	  0.449430	  0.179302	
9.87702	  0.385839	  0.396878	  0.163758	
9.94859	  0.300118	  0.318257	  0.138815	
10.0202	  0.212551	  0.232195	  0.111006	
10.0917	  0.132887	  0.149310	  0.084992	
